<mxfile host="drawio-plugin" modified="2022-06-16T18:30:17.125Z" agent="5.0 (Windows NT 6.2; Win64; x64) AppleWebKit/537.36 (KHTML, like Gecko) Chrome/97.0.4692.45 Safari/537.36" etag="Ygdjzua-PhvS_cb7zxGa" version="15.5.4" type="embed"><diagram id="C5RBs43oDa-KdzZeNtuy" name="Page-1"><mxGraphModel dx="2220" dy="1542" grid="1" gridSize="10" guides="1" tooltips="1" connect="1" arrows="1" fold="1" page="1" pageScale="1" pageWidth="2339" pageHeight="3300" math="0" shadow="0"><root><mxCell id="WIyWlLk6GJQsqaUBKTNV-0"/><mxCell id="WIyWlLk6GJQsqaUBKTNV-1" parent="WIyWlLk6GJQsqaUBKTNV-0"/><mxCell id="eWIvqRp22IpQnoqYMs7e-4" value="Machine" style="swimlane;fontStyle=1;align=center;verticalAlign=top;childLayout=stackLayout;horizontal=1;startSize=26;horizontalStack=0;resizeParent=1;resizeParentMax=0;resizeLast=0;collapsible=1;marginBottom=0;spacing=14;spacingTop=-13;spacingBottom=-5;fontSize=15;" parent="WIyWlLk6GJQsqaUBKTNV-1" vertex="1"><mxGeometry x="299.90999999999997" y="1105.91" width="160" height="86" as="geometry"/></mxCell><mxCell id="eWIvqRp22IpQnoqYMs7e-5" value="+ field: type" style="text;strokeColor=none;fillColor=none;align=left;verticalAlign=top;spacingLeft=4;spacingRight=4;overflow=hidden;rotatable=0;points=[[0,0.5],[1,0.5]];portConstraint=eastwest;spacing=14;spacingTop=-13;spacingBottom=-5;fontSize=15;" parent="eWIvqRp22IpQnoqYMs7e-4" vertex="1"><mxGeometry y="26" width="160" height="26" as="geometry"/></mxCell><mxCell id="eWIvqRp22IpQnoqYMs7e-6" value="" style="line;strokeWidth=1;fillColor=none;align=left;verticalAlign=middle;spacingTop=-13;spacingLeft=3;spacingRight=3;rotatable=0;labelPosition=right;points=[];portConstraint=eastwest;spacing=14;spacingBottom=-5;fontSize=15;" parent="eWIvqRp22IpQnoqYMs7e-4" vertex="1"><mxGeometry y="52" width="160" height="8" as="geometry"/></mxCell><mxCell id="eWIvqRp22IpQnoqYMs7e-7" value="+ method(type): type" style="text;strokeColor=none;fillColor=none;align=left;verticalAlign=top;spacingLeft=4;spacingRight=4;overflow=hidden;rotatable=0;points=[[0,0.5],[1,0.5]];portConstraint=eastwest;spacing=14;spacingTop=-13;spacingBottom=-5;fontSize=15;" parent="eWIvqRp22IpQnoqYMs7e-4" vertex="1"><mxGeometry y="60" width="160" height="26" as="geometry"/></mxCell><mxCell id="eWIvqRp22IpQnoqYMs7e-8" value="&lt;span style=&quot;&quot;&gt;Signal&lt;/span&gt;" style="ellipse;whiteSpace=wrap;html=1;spacing=14;spacingTop=-13;spacingBottom=-5;fontSize=15;" parent="WIyWlLk6GJQsqaUBKTNV-1" vertex="1"><mxGeometry x="79.99999999999994" y="210" width="150" height="90" as="geometry"/></mxCell><mxCell id="eWIvqRp22IpQnoqYMs7e-44" style="edgeStyle=orthogonalEdgeStyle;rounded=0;orthogonalLoop=1;jettySize=auto;html=1;exitX=0;exitY=0.25;exitDx=0;exitDy=0;entryX=0;entryY=0.5;entryDx=0;entryDy=0;endArrow=block;endFill=1;spacing=14;spacingTop=-13;spacingBottom=-5;fontSize=15;" parent="WIyWlLk6GJQsqaUBKTNV-1" source="eWIvqRp22IpQnoqYMs7e-9" target="eWIvqRp22IpQnoqYMs7e-43" edge="1"><mxGeometry relative="1" as="geometry"><Array as="points"><mxPoint x="889.91" y="825.91"/><mxPoint x="869.91" y="825.91"/><mxPoint x="869.91" y="748.91"/><mxPoint x="689.91" y="748.91"/><mxPoint x="689.91" y="592.91"/></Array></mxGeometry></mxCell><mxCell id="eWIvqRp22IpQnoqYMs7e-9" value="CNCFileCollection" style="swimlane;fontStyle=1;align=center;verticalAlign=top;childLayout=stackLayout;horizontal=1;startSize=26;horizontalStack=0;resizeParent=1;resizeParentMax=0;resizeLast=0;collapsible=1;marginBottom=0;spacing=14;spacingTop=-13;spacingBottom=-5;fontSize=15;labelBorderColor=#F0A30A;" parent="WIyWlLk6GJQsqaUBKTNV-1" vertex="1"><mxGeometry x="889.91" y="805.91" width="160" height="86" as="geometry"/></mxCell><mxCell id="eWIvqRp22IpQnoqYMs7e-10" value="+ field: type" style="text;strokeColor=none;fillColor=none;align=left;verticalAlign=top;spacingLeft=4;spacingRight=4;overflow=hidden;rotatable=0;points=[[0,0.5],[1,0.5]];portConstraint=eastwest;spacing=14;spacingTop=-13;spacingBottom=-5;fontSize=15;" parent="eWIvqRp22IpQnoqYMs7e-9" vertex="1"><mxGeometry y="26" width="160" height="26" as="geometry"/></mxCell><mxCell id="eWIvqRp22IpQnoqYMs7e-11" value="" style="line;strokeWidth=1;fillColor=none;align=left;verticalAlign=middle;spacingTop=-13;spacingLeft=3;spacingRight=3;rotatable=0;labelPosition=right;points=[];portConstraint=eastwest;spacing=14;spacingBottom=-5;fontSize=15;" parent="eWIvqRp22IpQnoqYMs7e-9" vertex="1"><mxGeometry y="52" width="160" height="8" as="geometry"/></mxCell><mxCell id="eWIvqRp22IpQnoqYMs7e-12" value="+ method(type): type" style="text;strokeColor=none;fillColor=none;align=left;verticalAlign=top;spacingLeft=4;spacingRight=4;overflow=hidden;rotatable=0;points=[[0,0.5],[1,0.5]];portConstraint=eastwest;spacing=14;spacingTop=-13;spacingBottom=-5;fontSize=15;" parent="eWIvqRp22IpQnoqYMs7e-9" vertex="1"><mxGeometry y="60" width="160" height="26" as="geometry"/></mxCell><mxCell id="eWIvqRp22IpQnoqYMs7e-13" style="edgeStyle=orthogonalEdgeStyle;rounded=0;orthogonalLoop=1;jettySize=auto;html=1;endArrow=openThin;endFill=0;exitX=0;exitY=0.5;exitDx=0;exitDy=0;entryX=0;entryY=0.5;entryDx=0;entryDy=0;spacing=14;spacingTop=-13;spacingBottom=-5;fontSize=15;" parent="WIyWlLk6GJQsqaUBKTNV-1" source="eWIvqRp22IpQnoqYMs7e-17" target="eWIvqRp22IpQnoqYMs7e-7" edge="1"><mxGeometry relative="1" as="geometry"><mxPoint x="459.90999999999997" y="815.91" as="targetPoint"/><Array as="points"><mxPoint x="810" y="1033"/><mxPoint x="810" y="1260"/><mxPoint x="280" y="1260"/><mxPoint x="280" y="1179"/></Array></mxGeometry></mxCell><mxCell id="eWIvqRp22IpQnoqYMs7e-14" value="CNC-Factory" style="swimlane;fontStyle=1;align=center;verticalAlign=top;childLayout=stackLayout;horizontal=1;startSize=26;horizontalStack=0;resizeParent=1;resizeParentMax=0;resizeLast=0;collapsible=1;marginBottom=0;spacing=14;spacingTop=-13;spacingBottom=-5;fontSize=15;labelBorderColor=#00C427;" parent="WIyWlLk6GJQsqaUBKTNV-1" vertex="1"><mxGeometry x="839.91" y="985.91" width="160" height="60" as="geometry"/></mxCell><mxCell id="eWIvqRp22IpQnoqYMs7e-16" value="" style="line;strokeWidth=1;fillColor=none;align=left;verticalAlign=middle;spacingTop=-13;spacingLeft=3;spacingRight=3;rotatable=0;labelPosition=right;points=[];portConstraint=eastwest;spacing=14;spacingBottom=-5;fontSize=15;" parent="eWIvqRp22IpQnoqYMs7e-14" vertex="1"><mxGeometry y="26" width="160" height="8" as="geometry"/></mxCell><mxCell id="eWIvqRp22IpQnoqYMs7e-17" value="+ create(dict): CNCFile()" style="text;strokeColor=none;fillColor=none;align=left;verticalAlign=top;spacingLeft=4;spacingRight=4;overflow=hidden;rotatable=0;points=[[0,0.5],[1,0.5]];portConstraint=eastwest;spacing=14;spacingTop=-13;spacingBottom=-5;fontSize=15;" parent="eWIvqRp22IpQnoqYMs7e-14" vertex="1"><mxGeometry y="34" width="160" height="26" as="geometry"/></mxCell><mxCell id="eWIvqRp22IpQnoqYMs7e-19" value="CNCFile" style="swimlane;fontStyle=1;align=center;verticalAlign=top;childLayout=stackLayout;horizontal=1;startSize=26;horizontalStack=0;resizeParent=1;resizeParentMax=0;resizeLast=0;collapsible=1;marginBottom=0;spacing=14;spacingTop=-13;spacingBottom=-5;fontSize=15;" parent="WIyWlLk6GJQsqaUBKTNV-1" vertex="1"><mxGeometry x="1169.91" y="1319.91" width="190" height="606" as="geometry"/></mxCell><mxCell id="eWIvqRp22IpQnoqYMs7e-20" value="#name: str" style="text;strokeColor=none;fillColor=none;align=left;verticalAlign=top;spacingLeft=4;spacingRight=4;overflow=hidden;rotatable=0;points=[[0,0.5],[1,0.5]];portConstraint=eastwest;spacing=14;spacingTop=-13;spacingBottom=-5;fontSize=15;" parent="eWIvqRp22IpQnoqYMs7e-19" vertex="1"><mxGeometry y="26" width="190" height="26" as="geometry"/></mxCell><mxCell id="eWIvqRp22IpQnoqYMs7e-83" value="#_format_: Optional[str]" style="text;strokeColor=none;fillColor=none;align=left;verticalAlign=top;spacingLeft=4;spacingRight=4;overflow=hidden;rotatable=0;points=[[0,0.5],[1,0.5]];portConstraint=eastwest;spacing=14;spacingTop=-13;spacingBottom=-5;fontSize=15;" parent="eWIvqRp22IpQnoqYMs7e-19" vertex="1"><mxGeometry y="52" width="190" height="26" as="geometry"/></mxCell><mxCell id="eWIvqRp22IpQnoqYMs7e-82" value="# _length: int" style="text;strokeColor=none;fillColor=none;align=left;verticalAlign=top;spacingLeft=4;spacingRight=4;overflow=hidden;rotatable=0;points=[[0,0.5],[1,0.5]];portConstraint=eastwest;spacing=14;spacingTop=-13;spacingBottom=-5;fontSize=15;" parent="eWIvqRp22IpQnoqYMs7e-19" vertex="1"><mxGeometry y="78" width="190" height="26" as="geometry"/></mxCell><mxCell id="eWIvqRp22IpQnoqYMs7e-81" value="__last_modify_time: Optional[int]" style="text;strokeColor=none;fillColor=none;align=left;verticalAlign=top;spacingLeft=4;spacingRight=4;overflow=hidden;rotatable=0;points=[[0,0.5],[1,0.5]];portConstraint=eastwest;spacing=14;spacingTop=-13;spacingBottom=-5;fontSize=15;" parent="eWIvqRp22IpQnoqYMs7e-19" vertex="1"><mxGeometry y="104" width="190" height="26" as="geometry"/></mxCell><mxCell id="eWIvqRp22IpQnoqYMs7e-80" value="_origin: Optional[os.open]" style="text;strokeColor=none;fillColor=none;align=left;verticalAlign=top;spacingLeft=4;spacingRight=4;overflow=hidden;rotatable=0;points=[[0,0.5],[1,0.5]];portConstraint=eastwest;spacing=14;spacingTop=-13;spacingBottom=-5;fontSize=15;" parent="eWIvqRp22IpQnoqYMs7e-19" vertex="1"><mxGeometry y="130" width="190" height="26" as="geometry"/></mxCell><mxCell id="eWIvqRp22IpQnoqYMs7e-79" value="__f_size: int" style="text;strokeColor=none;fillColor=none;align=left;verticalAlign=top;spacingLeft=4;spacingRight=4;overflow=hidden;rotatable=0;points=[[0,0.5],[1,0.5]];portConstraint=eastwest;spacing=14;spacingTop=-13;spacingBottom=-5;fontSize=15;" parent="eWIvqRp22IpQnoqYMs7e-19" vertex="1"><mxGeometry y="156" width="190" height="26" as="geometry"/></mxCell><mxCell id="eWIvqRp22IpQnoqYMs7e-78" value="+ is_numerate: bool" style="text;strokeColor=none;fillColor=none;align=left;verticalAlign=top;spacingLeft=4;spacingRight=4;overflow=hidden;rotatable=0;points=[[0,0.5],[1,0.5]];portConstraint=eastwest;spacing=14;spacingTop=-13;spacingBottom=-5;fontSize=15;" parent="eWIvqRp22IpQnoqYMs7e-19" vertex="1"><mxGeometry y="182" width="190" height="26" as="geometry"/></mxCell><mxCell id="eWIvqRp22IpQnoqYMs7e-77" value="# _status: bool" style="text;strokeColor=none;fillColor=none;align=left;verticalAlign=top;spacingLeft=4;spacingRight=4;overflow=hidden;rotatable=0;points=[[0,0.5],[1,0.5]];portConstraint=eastwest;spacing=14;spacingTop=-13;spacingBottom=-5;fontSize=15;" parent="eWIvqRp22IpQnoqYMs7e-19" vertex="1"><mxGeometry y="208" width="190" height="26" as="geometry"/></mxCell><mxCell id="eWIvqRp22IpQnoqYMs7e-76" value="# _temp: Optional[Temp]" style="text;strokeColor=none;fillColor=none;align=left;verticalAlign=top;spacingLeft=4;spacingRight=4;overflow=hidden;rotatable=0;points=[[0,0.5],[1,0.5]];portConstraint=eastwest;spacing=14;spacingTop=-13;spacingBottom=-5;fontSize=15;" parent="eWIvqRp22IpQnoqYMs7e-19" vertex="1"><mxGeometry y="234" width="190" height="26" as="geometry"/></mxCell><mxCell id="eWIvqRp22IpQnoqYMs7e-75" value="# _head_index: tuple[int, int]" style="text;strokeColor=none;fillColor=none;align=left;verticalAlign=top;spacingLeft=4;spacingRight=4;overflow=hidden;rotatable=0;points=[[0,0.5],[1,0.5]];portConstraint=eastwest;spacing=14;spacingTop=-13;spacingBottom=-5;fontSize=15;" parent="eWIvqRp22IpQnoqYMs7e-19" vertex="1"><mxGeometry y="260" width="190" height="26" as="geometry"/></mxCell><mxCell id="eWIvqRp22IpQnoqYMs7e-74" value="- __open_errors_counter: int" style="text;strokeColor=none;fillColor=none;align=left;verticalAlign=top;spacingLeft=4;spacingRight=4;overflow=hidden;rotatable=0;points=[[0,0.5],[1,0.5]];portConstraint=eastwest;spacing=14;spacingTop=-13;spacingBottom=-5;fontSize=15;" parent="eWIvqRp22IpQnoqYMs7e-19" vertex="1"><mxGeometry y="286" width="190" height="26" as="geometry"/></mxCell><mxCell id="eWIvqRp22IpQnoqYMs7e-73" value="#_temp: Temp" style="text;strokeColor=none;fillColor=none;align=left;verticalAlign=top;spacingLeft=4;spacingRight=4;overflow=hidden;rotatable=0;points=[[0,0.5],[1,0.5]];portConstraint=eastwest;spacing=14;spacingTop=-13;spacingBottom=-5;fontSize=15;" parent="eWIvqRp22IpQnoqYMs7e-19" vertex="1"><mxGeometry y="312" width="190" height="26" as="geometry"/></mxCell><mxCell id="eWIvqRp22IpQnoqYMs7e-21" value="" style="line;strokeWidth=1;fillColor=none;align=left;verticalAlign=middle;spacingTop=-13;spacingLeft=3;spacingRight=3;rotatable=0;labelPosition=right;points=[];portConstraint=eastwest;spacing=14;spacingBottom=-5;fontSize=15;" parent="eWIvqRp22IpQnoqYMs7e-19" vertex="1"><mxGeometry y="338" width="190" height="8" as="geometry"/></mxCell><mxCell id="eWIvqRp22IpQnoqYMs7e-22" value="+ parse_name: dict" style="text;strokeColor=none;fillColor=none;align=left;verticalAlign=top;spacingLeft=4;spacingRight=4;overflow=hidden;rotatable=0;points=[[0,0.5],[1,0.5]];portConstraint=eastwest;spacing=14;spacingTop=-13;spacingBottom=-5;fontSize=15;" parent="eWIvqRp22IpQnoqYMs7e-19" vertex="1"><mxGeometry y="346" width="190" height="26" as="geometry"/></mxCell><mxCell id="eWIvqRp22IpQnoqYMs7e-90" value="+ parse_head: tuple" style="text;strokeColor=none;fillColor=none;align=left;verticalAlign=top;spacingLeft=4;spacingRight=4;overflow=hidden;rotatable=0;points=[[0,0.5],[1,0.5]];portConstraint=eastwest;spacing=14;spacingTop=-13;spacingBottom=-5;fontSize=15;" parent="eWIvqRp22IpQnoqYMs7e-19" vertex="1"><mxGeometry y="372" width="190" height="26" as="geometry"/></mxCell><mxCell id="eWIvqRp22IpQnoqYMs7e-89" value="is_large: bool" style="text;strokeColor=none;fillColor=none;align=left;verticalAlign=top;spacingLeft=4;spacingRight=4;overflow=hidden;rotatable=0;points=[[0,0.5],[1,0.5]];portConstraint=eastwest;spacing=14;spacingTop=-13;spacingBottom=-5;fontSize=15;" parent="eWIvqRp22IpQnoqYMs7e-19" vertex="1"><mxGeometry y="398" width="190" height="26" as="geometry"/></mxCell><mxCell id="eWIvqRp22IpQnoqYMs7e-88" value="is_origin: bool" style="text;strokeColor=none;fillColor=none;align=left;verticalAlign=top;spacingLeft=4;spacingRight=4;overflow=hidden;rotatable=0;points=[[0,0.5],[1,0.5]];portConstraint=eastwest;spacing=14;spacingTop=-13;spacingBottom=-5;fontSize=15;" parent="eWIvqRp22IpQnoqYMs7e-19" vertex="1"><mxGeometry y="424" width="190" height="26" as="geometry"/></mxCell><mxCell id="eWIvqRp22IpQnoqYMs7e-87" value="+ open(str, str): Iterator" style="text;strokeColor=none;fillColor=none;align=left;verticalAlign=top;spacingLeft=4;spacingRight=4;overflow=hidden;rotatable=0;points=[[0,0.5],[1,0.5]];portConstraint=eastwest;spacing=14;spacingTop=-13;spacingBottom=-5;fontSize=15;" parent="eWIvqRp22IpQnoqYMs7e-19" vertex="1"><mxGeometry y="450" width="190" height="26" as="geometry"/></mxCell><mxCell id="eWIvqRp22IpQnoqYMs7e-86" value="+ re_connect(str, str): Iterator" style="text;strokeColor=none;fillColor=none;align=left;verticalAlign=top;spacingLeft=4;spacingRight=4;overflow=hidden;rotatable=0;points=[[0,0.5],[1,0.5]];portConstraint=eastwest;spacing=14;spacingTop=-13;spacingBottom=-5;fontSize=15;" parent="eWIvqRp22IpQnoqYMs7e-19" vertex="1"><mxGeometry y="476" width="190" height="26" as="geometry"/></mxCell><mxCell id="eWIvqRp22IpQnoqYMs7e-85" value="+ is_valid_index(int): None" style="text;strokeColor=none;fillColor=none;align=left;verticalAlign=top;spacingLeft=4;spacingRight=4;overflow=hidden;rotatable=0;points=[[0,0.5],[1,0.5]];portConstraint=eastwest;spacing=14;spacingTop=-13;spacingBottom=-5;fontSize=15;" parent="eWIvqRp22IpQnoqYMs7e-19" vertex="1"><mxGeometry y="502" width="190" height="26" as="geometry"/></mxCell><mxCell id="eWIvqRp22IpQnoqYMs7e-84" style="text;strokeColor=none;fillColor=none;align=left;verticalAlign=top;spacingLeft=4;spacingRight=4;overflow=hidden;rotatable=0;points=[[0,0.5],[1,0.5]];portConstraint=eastwest;spacing=14;spacingTop=-13;spacingBottom=-5;fontSize=15;" parent="eWIvqRp22IpQnoqYMs7e-19" vertex="1"><mxGeometry y="528" width="190" height="26" as="geometry"/></mxCell><mxCell id="eWIvqRp22IpQnoqYMs7e-92" style="text;strokeColor=none;fillColor=none;align=left;verticalAlign=top;spacingLeft=4;spacingRight=4;overflow=hidden;rotatable=0;points=[[0,0.5],[1,0.5]];portConstraint=eastwest;spacing=14;spacingTop=-13;spacingBottom=-5;fontSize=15;" parent="eWIvqRp22IpQnoqYMs7e-19" vertex="1"><mxGeometry y="554" width="190" height="26" as="geometry"/></mxCell><mxCell id="eWIvqRp22IpQnoqYMs7e-91" style="text;strokeColor=none;fillColor=none;align=left;verticalAlign=top;spacingLeft=4;spacingRight=4;overflow=hidden;rotatable=0;points=[[0,0.5],[1,0.5]];portConstraint=eastwest;spacing=14;spacingTop=-13;spacingBottom=-5;fontSize=15;" parent="eWIvqRp22IpQnoqYMs7e-19" vertex="1"><mxGeometry y="580" width="190" height="26" as="geometry"/></mxCell><mxCell id="eWIvqRp22IpQnoqYMs7e-23" style="edgeStyle=orthogonalEdgeStyle;rounded=0;orthogonalLoop=1;jettySize=auto;html=1;entryX=1;entryY=0.5;entryDx=0;entryDy=0;endArrow=diamondThin;endFill=1;exitX=0;exitY=0.5;exitDx=0;exitDy=0;startSize=6;endSize=14;spacing=14;spacingTop=-13;spacingBottom=-5;fontSize=15;" parent="WIyWlLk6GJQsqaUBKTNV-1" source="eWIvqRp22IpQnoqYMs7e-20" target="eWIvqRp22IpQnoqYMs7e-12" edge="1"><mxGeometry relative="1" as="geometry"><mxPoint x="679.91" y="1067.91" as="sourcePoint"/><Array as="points"><mxPoint x="1129.91" y="1358.91"/><mxPoint x="1129.91" y="878.91"/></Array></mxGeometry></mxCell><mxCell id="eWIvqRp22IpQnoqYMs7e-24" value="LinkedList" style="swimlane;fontStyle=1;align=center;verticalAlign=top;childLayout=stackLayout;horizontal=1;startSize=26;horizontalStack=0;resizeParent=1;resizeParentMax=0;resizeLast=0;collapsible=1;marginBottom=0;spacing=14;spacingTop=-13;spacingBottom=-5;fontSize=15;labelBorderColor=#F0A30A;" parent="WIyWlLk6GJQsqaUBKTNV-1" vertex="1"><mxGeometry x="929.91" y="99.91" width="280" height="476" as="geometry"/></mxCell><mxCell id="eWIvqRp22IpQnoqYMs7e-25" value="- head: LinkedListItem" style="text;strokeColor=none;fillColor=none;align=left;verticalAlign=top;spacingLeft=4;spacingRight=4;overflow=hidden;rotatable=0;points=[[0,0.5],[1,0.5]];portConstraint=eastwest;spacing=14;spacingTop=-13;spacingBottom=-5;fontSize=15;" parent="eWIvqRp22IpQnoqYMs7e-24" vertex="1"><mxGeometry y="26" width="280" height="26" as="geometry"/></mxCell><mxCell id="nFAthjIKCvnRlDfPgbJd-28" value="__str__: str" style="text;strokeColor=none;fillColor=none;align=left;verticalAlign=top;spacingLeft=4;spacingRight=4;overflow=hidden;rotatable=0;points=[[0,0.5],[1,0.5]];portConstraint=eastwest;spacing=14;spacingTop=-13;spacingBottom=-5;fontSize=15;" parent="eWIvqRp22IpQnoqYMs7e-24" vertex="1"><mxGeometry y="52" width="280" height="26" as="geometry"/></mxCell><mxCell id="nFAthjIKCvnRlDfPgbJd-26" value="__repr__: list" style="text;strokeColor=none;fillColor=none;align=left;verticalAlign=top;spacingLeft=4;spacingRight=4;overflow=hidden;rotatable=0;points=[[0,0.5],[1,0.5]];portConstraint=eastwest;spacing=14;spacingTop=-13;spacingBottom=-5;fontSize=15;" parent="eWIvqRp22IpQnoqYMs7e-24" vertex="1"><mxGeometry y="78" width="280" height="26" as="geometry"/></mxCell><mxCell id="nFAthjIKCvnRlDfPgbJd-27" value="__delitem__(int): LinkedListItem" style="text;strokeColor=none;fillColor=none;align=left;verticalAlign=top;spacingLeft=4;spacingRight=4;overflow=hidden;rotatable=0;points=[[0,0.5],[1,0.5]];portConstraint=eastwest;spacing=14;spacingTop=-13;spacingBottom=-5;fontSize=15;" parent="eWIvqRp22IpQnoqYMs7e-24" vertex="1"><mxGeometry y="104" width="280" height="26" as="geometry"/></mxCell><mxCell id="nFAthjIKCvnRlDfPgbJd-22" value="__getitem__(int): LinkedListItem" style="text;strokeColor=none;fillColor=none;align=left;verticalAlign=top;spacingLeft=4;spacingRight=4;overflow=hidden;rotatable=0;points=[[0,0.5],[1,0.5]];portConstraint=eastwest;spacing=14;spacingTop=-13;spacingBottom=-5;fontSize=15;" parent="eWIvqRp22IpQnoqYMs7e-24" vertex="1"><mxGeometry y="130" width="280" height="26" as="geometry"/></mxCell><mxCell id="nFAthjIKCvnRlDfPgbJd-23" value="__bool__: bool" style="text;strokeColor=none;fillColor=none;align=left;verticalAlign=top;spacingLeft=4;spacingRight=4;overflow=hidden;rotatable=0;points=[[0,0.5],[1,0.5]];portConstraint=eastwest;spacing=14;spacingTop=-13;spacingBottom=-5;fontSize=15;" parent="eWIvqRp22IpQnoqYMs7e-24" vertex="1"><mxGeometry y="156" width="280" height="26" as="geometry"/></mxCell><mxCell id="nFAthjIKCvnRlDfPgbJd-19" value="__len__: int" style="text;strokeColor=none;fillColor=none;align=left;verticalAlign=top;spacingLeft=4;spacingRight=4;overflow=hidden;rotatable=0;points=[[0,0.5],[1,0.5]];portConstraint=eastwest;spacing=14;spacingTop=-13;spacingBottom=-5;fontSize=15;" parent="eWIvqRp22IpQnoqYMs7e-24" vertex="1"><mxGeometry y="182" width="280" height="26" as="geometry"/></mxCell><mxCell id="nFAthjIKCvnRlDfPgbJd-20" value="__iter__: Iterator" style="text;strokeColor=none;fillColor=none;align=left;verticalAlign=top;spacingLeft=4;spacingRight=4;overflow=hidden;rotatable=0;points=[[0,0.5],[1,0.5]];portConstraint=eastwest;spacing=14;spacingTop=-13;spacingBottom=-5;fontSize=15;" parent="eWIvqRp22IpQnoqYMs7e-24" vertex="1"><mxGeometry y="208" width="280" height="26" as="geometry"/></mxCell><mxCell id="nFAthjIKCvnRlDfPgbJd-8" value="- tail: LinkedListItem" style="text;strokeColor=none;fillColor=none;align=left;verticalAlign=top;spacingLeft=4;spacingRight=4;overflow=hidden;rotatable=0;points=[[0,0.5],[1,0.5]];portConstraint=eastwest;spacing=14;spacingTop=-13;spacingBottom=-5;fontSize=15;" parent="eWIvqRp22IpQnoqYMs7e-24" vertex="1"><mxGeometry y="234" width="280" height="26" as="geometry"/></mxCell><mxCell id="nFAthjIKCvnRlDfPgbJd-7" value="- length: int" style="text;strokeColor=none;fillColor=none;align=left;verticalAlign=top;spacingLeft=4;spacingRight=4;overflow=hidden;rotatable=0;points=[[0,0.5],[1,0.5]];portConstraint=eastwest;spacing=14;spacingTop=-13;spacingBottom=-5;fontSize=15;" parent="eWIvqRp22IpQnoqYMs7e-24" vertex="1"><mxGeometry y="260" width="280" height="26" as="geometry"/></mxCell><mxCell id="eWIvqRp22IpQnoqYMs7e-26" value="" style="line;strokeWidth=1;fillColor=none;align=left;verticalAlign=middle;spacingTop=-13;spacingLeft=3;spacingRight=3;rotatable=0;labelPosition=right;points=[];portConstraint=eastwest;spacing=14;spacingBottom=-5;fontSize=15;" parent="eWIvqRp22IpQnoqYMs7e-24" vertex="1"><mxGeometry y="286" width="280" height="8" as="geometry"/></mxCell><mxCell id="eWIvqRp22IpQnoqYMs7e-27" value="+ append(LinkedListItem): None" style="text;strokeColor=none;fillColor=none;align=left;verticalAlign=top;spacingLeft=4;spacingRight=4;overflow=hidden;rotatable=0;points=[[0,0.5],[1,0.5]];portConstraint=eastwest;spacing=14;spacingTop=-13;spacingBottom=-5;fontSize=15;" parent="eWIvqRp22IpQnoqYMs7e-24" vertex="1"><mxGeometry y="294" width="280" height="26" as="geometry"/></mxCell><mxCell id="nFAthjIKCvnRlDfPgbJd-18" value="# is_valid_index(LinkedListItem): None" style="text;strokeColor=none;fillColor=none;align=left;verticalAlign=top;spacingLeft=4;spacingRight=4;overflow=hidden;rotatable=0;points=[[0,0.5],[1,0.5]];portConstraint=eastwest;spacing=14;spacingTop=-13;spacingBottom=-5;fontSize=15;" parent="eWIvqRp22IpQnoqYMs7e-24" vertex="1"><mxGeometry y="320" width="280" height="26" as="geometry"/></mxCell><mxCell id="nFAthjIKCvnRlDfPgbJd-17" value="# is_valid_node(LinkedListItem): None" style="text;strokeColor=none;fillColor=none;align=left;verticalAlign=top;spacingLeft=4;spacingRight=4;overflow=hidden;rotatable=0;points=[[0,0.5],[1,0.5]];portConstraint=eastwest;spacing=14;spacingTop=-13;spacingBottom=-5;fontSize=15;" parent="eWIvqRp22IpQnoqYMs7e-24" vertex="1"><mxGeometry y="346" width="280" height="26" as="geometry"/></mxCell><mxCell id="nFAthjIKCvnRlDfPgbJd-16" value="# is_valid_node(LinkedListItem) : None" style="text;strokeColor=none;fillColor=none;align=left;verticalAlign=top;spacingLeft=4;spacingRight=4;overflow=hidden;rotatable=0;points=[[0,0.5],[1,0.5]];portConstraint=eastwest;spacing=14;spacingTop=-13;spacingBottom=-5;fontSize=15;" parent="eWIvqRp22IpQnoqYMs7e-24" vertex="1"><mxGeometry y="372" width="280" height="26" as="geometry"/></mxCell><mxCell id="nFAthjIKCvnRlDfPgbJd-15" value="# set_next(LinkedListItem, LinkedListItem): None" style="text;strokeColor=none;fillColor=none;align=left;verticalAlign=top;spacingLeft=4;spacingRight=4;overflow=hidden;rotatable=0;points=[[0,0.5],[1,0.5]];portConstraint=eastwest;spacing=14;spacingTop=-13;spacingBottom=-5;fontSize=15;" parent="eWIvqRp22IpQnoqYMs7e-24" vertex="1"><mxGeometry y="398" width="280" height="26" as="geometry"/></mxCell><mxCell id="nFAthjIKCvnRlDfPgbJd-25" value="+ forward_move(int): LinkedListItem" style="text;strokeColor=none;fillColor=none;align=left;verticalAlign=top;spacingLeft=4;spacingRight=4;overflow=hidden;rotatable=0;points=[[0,0.5],[1,0.5]];portConstraint=eastwest;spacing=14;spacingTop=-13;spacingBottom=-5;fontSize=15;" parent="eWIvqRp22IpQnoqYMs7e-24" vertex="1"><mxGeometry y="424" width="280" height="26" as="geometry"/></mxCell><mxCell id="nFAthjIKCvnRlDfPgbJd-21" value="# items_gen: Iterator" style="text;strokeColor=none;fillColor=none;align=left;verticalAlign=top;spacingLeft=4;spacingRight=4;overflow=hidden;rotatable=0;points=[[0,0.5],[1,0.5]];portConstraint=eastwest;spacing=14;spacingTop=-13;fontSize=15;spacingBottom=-5;" parent="eWIvqRp22IpQnoqYMs7e-24" vertex="1"><mxGeometry y="450" width="280" height="26" as="geometry"/></mxCell><mxCell id="eWIvqRp22IpQnoqYMs7e-28" style="edgeStyle=orthogonalEdgeStyle;rounded=0;orthogonalLoop=1;jettySize=auto;html=1;exitX=1;exitY=0.5;exitDx=0;exitDy=0;entryX=1;entryY=0.5;entryDx=0;entryDy=0;endArrow=block;endFill=1;spacing=14;spacingTop=-13;spacingBottom=-5;fontSize=15;" parent="WIyWlLk6GJQsqaUBKTNV-1" source="eWIvqRp22IpQnoqYMs7e-10" target="eWIvqRp22IpQnoqYMs7e-27" edge="1"><mxGeometry relative="1" as="geometry"><Array as="points"><mxPoint x="1269.91" y="845.91"/><mxPoint x="1269.91" y="406.91"/></Array></mxGeometry></mxCell><mxCell id="eWIvqRp22IpQnoqYMs7e-34" value="AbstractMachine" style="swimlane;fontStyle=1;align=center;verticalAlign=top;childLayout=stackLayout;horizontal=1;startSize=26;horizontalStack=0;resizeParent=1;resizeParentMax=0;resizeLast=0;collapsible=1;marginBottom=0;spacing=14;spacingTop=-13;spacingBottom=-5;fontSize=15;labelBorderColor=#C42121;" parent="WIyWlLk6GJQsqaUBKTNV-1" vertex="1"><mxGeometry x="299.90999999999997" y="985.91" width="160" height="86" as="geometry"/></mxCell><mxCell id="eWIvqRp22IpQnoqYMs7e-35" value="+ field: type" style="text;strokeColor=none;fillColor=none;align=left;verticalAlign=top;spacingLeft=4;spacingRight=4;overflow=hidden;rotatable=0;points=[[0,0.5],[1,0.5]];portConstraint=eastwest;spacing=14;spacingTop=-13;spacingBottom=-5;fontSize=15;" parent="eWIvqRp22IpQnoqYMs7e-34" vertex="1"><mxGeometry y="26" width="160" height="26" as="geometry"/></mxCell><mxCell id="eWIvqRp22IpQnoqYMs7e-36" value="" style="line;strokeWidth=1;fillColor=none;align=left;verticalAlign=middle;spacingTop=-13;spacingLeft=3;spacingRight=3;rotatable=0;labelPosition=right;points=[];portConstraint=eastwest;spacing=14;spacingBottom=-5;fontSize=15;" parent="eWIvqRp22IpQnoqYMs7e-34" vertex="1"><mxGeometry y="52" width="160" height="8" as="geometry"/></mxCell><mxCell id="eWIvqRp22IpQnoqYMs7e-37" value="+ method(type): type" style="text;strokeColor=none;fillColor=none;align=left;verticalAlign=top;spacingLeft=4;spacingRight=4;overflow=hidden;rotatable=0;points=[[0,0.5],[1,0.5]];portConstraint=eastwest;spacing=14;spacingTop=-13;spacingBottom=-5;fontSize=15;" parent="eWIvqRp22IpQnoqYMs7e-34" vertex="1"><mxGeometry y="60" width="160" height="26" as="geometry"/></mxCell><mxCell id="eWIvqRp22IpQnoqYMs7e-39" style="edgeStyle=orthogonalEdgeStyle;rounded=0;orthogonalLoop=1;jettySize=auto;html=1;exitX=0;exitY=0.5;exitDx=0;exitDy=0;entryX=0;entryY=0.5;entryDx=0;entryDy=0;endArrow=block;endFill=1;spacing=14;spacingTop=-13;spacingBottom=-5;fontSize=15;" parent="WIyWlLk6GJQsqaUBKTNV-1" source="eWIvqRp22IpQnoqYMs7e-5" target="eWIvqRp22IpQnoqYMs7e-37" edge="1"><mxGeometry relative="1" as="geometry"/></mxCell><mxCell id="eWIvqRp22IpQnoqYMs7e-40" value="AbstractSession" style="swimlane;fontStyle=1;align=center;verticalAlign=top;childLayout=stackLayout;horizontal=1;startSize=26;horizontalStack=0;resizeParent=1;resizeParentMax=0;resizeLast=0;collapsible=1;marginBottom=0;spacing=14;spacingTop=-13;spacingBottom=-5;fontSize=15;labelBorderColor=#C42121;" parent="WIyWlLk6GJQsqaUBKTNV-1" vertex="1"><mxGeometry x="709.91" y="519.91" width="160" height="86" as="geometry"/></mxCell><mxCell id="eWIvqRp22IpQnoqYMs7e-41" value="+ field: type" style="text;strokeColor=none;fillColor=none;align=left;verticalAlign=top;spacingLeft=4;spacingRight=4;overflow=hidden;rotatable=0;points=[[0,0.5],[1,0.5]];portConstraint=eastwest;spacing=14;spacingTop=-13;spacingBottom=-5;fontSize=15;" parent="eWIvqRp22IpQnoqYMs7e-40" vertex="1"><mxGeometry y="26" width="160" height="26" as="geometry"/></mxCell><mxCell id="eWIvqRp22IpQnoqYMs7e-42" value="" style="line;strokeWidth=1;fillColor=none;align=left;verticalAlign=middle;spacingTop=-13;spacingLeft=3;spacingRight=3;rotatable=0;labelPosition=right;points=[];portConstraint=eastwest;spacing=14;spacingBottom=-5;fontSize=15;" parent="eWIvqRp22IpQnoqYMs7e-40" vertex="1"><mxGeometry y="52" width="160" height="8" as="geometry"/></mxCell><mxCell id="eWIvqRp22IpQnoqYMs7e-43" value="+ method(type): type" style="text;strokeColor=none;fillColor=none;align=left;verticalAlign=top;spacingLeft=4;spacingRight=4;overflow=hidden;rotatable=0;points=[[0,0.5],[1,0.5]];portConstraint=eastwest;spacing=14;spacingTop=-13;spacingBottom=-5;fontSize=15;" parent="eWIvqRp22IpQnoqYMs7e-40" vertex="1"><mxGeometry y="60" width="160" height="26" as="geometry"/></mxCell><mxCell id="eWIvqRp22IpQnoqYMs7e-45" value="AbstractCNCFile" style="swimlane;fontStyle=1;align=center;verticalAlign=top;childLayout=stackLayout;horizontal=1;startSize=26;horizontalStack=0;resizeParent=1;resizeParentMax=0;resizeLast=0;collapsible=1;marginBottom=0;spacing=14;spacingTop=-13;spacingBottom=-5;fontSize=15;labelBorderColor=#C42121;" parent="WIyWlLk6GJQsqaUBKTNV-1" vertex="1"><mxGeometry x="869.91" y="1339.91" width="160" height="86" as="geometry"/></mxCell><mxCell id="eWIvqRp22IpQnoqYMs7e-46" value="+ field: type" style="text;strokeColor=none;fillColor=none;align=left;verticalAlign=top;spacingLeft=4;spacingRight=4;overflow=hidden;rotatable=0;points=[[0,0.5],[1,0.5]];portConstraint=eastwest;spacing=14;spacingTop=-13;spacingBottom=-5;fontSize=15;" parent="eWIvqRp22IpQnoqYMs7e-45" vertex="1"><mxGeometry y="26" width="160" height="26" as="geometry"/></mxCell><mxCell id="eWIvqRp22IpQnoqYMs7e-47" value="" style="line;strokeWidth=1;fillColor=none;align=left;verticalAlign=middle;spacingTop=-13;spacingLeft=3;spacingRight=3;rotatable=0;labelPosition=right;points=[];portConstraint=eastwest;spacing=14;spacingBottom=-5;fontSize=15;" parent="eWIvqRp22IpQnoqYMs7e-45" vertex="1"><mxGeometry y="52" width="160" height="8" as="geometry"/></mxCell><mxCell id="eWIvqRp22IpQnoqYMs7e-48" value="+ method(type): type" style="text;strokeColor=none;fillColor=none;align=left;verticalAlign=top;spacingLeft=4;spacingRight=4;overflow=hidden;rotatable=0;points=[[0,0.5],[1,0.5]];portConstraint=eastwest;spacing=14;spacingTop=-13;spacingBottom=-5;fontSize=15;" parent="eWIvqRp22IpQnoqYMs7e-45" vertex="1"><mxGeometry y="60" width="160" height="26" as="geometry"/></mxCell><mxCell id="eWIvqRp22IpQnoqYMs7e-49" style="edgeStyle=orthogonalEdgeStyle;rounded=0;orthogonalLoop=1;jettySize=auto;html=1;exitX=1;exitY=0.5;exitDx=0;exitDy=0;endArrow=block;endFill=1;entryX=0;entryY=0.5;entryDx=0;entryDy=0;spacing=14;spacingTop=-13;spacingBottom=-5;fontSize=15;" parent="WIyWlLk6GJQsqaUBKTNV-1" source="eWIvqRp22IpQnoqYMs7e-46" target="eWIvqRp22IpQnoqYMs7e-83" edge="1"><mxGeometry relative="1" as="geometry"><mxPoint x="649.91" y="1095.91" as="targetPoint"/><Array as="points"><mxPoint x="1029.91" y="1384.91"/></Array></mxGeometry></mxCell><mxCell id="eWIvqRp22IpQnoqYMs7e-65" value="Tool" style="swimlane;fontStyle=1;align=center;verticalAlign=top;childLayout=stackLayout;horizontal=1;startSize=26;horizontalStack=0;resizeParent=1;resizeParentMax=0;resizeLast=0;collapsible=1;marginBottom=0;spacing=14;spacingTop=-13;spacingBottom=-5;fontSize=15;" parent="WIyWlLk6GJQsqaUBKTNV-1" vertex="1"><mxGeometry x="889.91" y="1549.91" width="160" height="112" as="geometry"/></mxCell><mxCell id="eWIvqRp22IpQnoqYMs7e-67" value="" style="line;strokeWidth=1;fillColor=none;align=left;verticalAlign=middle;spacingTop=-13;spacingLeft=3;spacingRight=3;rotatable=0;labelPosition=right;points=[];portConstraint=eastwest;spacing=14;spacingBottom=-5;fontSize=15;" parent="eWIvqRp22IpQnoqYMs7e-65" vertex="1"><mxGeometry y="26" width="160" height="8" as="geometry"/></mxCell><mxCell id="eWIvqRp22IpQnoqYMs7e-68" value="+ method(type): type" style="text;strokeColor=none;fillColor=none;align=left;verticalAlign=top;spacingLeft=4;spacingRight=4;overflow=hidden;rotatable=0;points=[[0,0.5],[1,0.5]];portConstraint=eastwest;spacing=14;spacingTop=-13;spacingBottom=-5;fontSize=15;" parent="eWIvqRp22IpQnoqYMs7e-65" vertex="1"><mxGeometry y="34" width="160" height="26" as="geometry"/></mxCell><mxCell id="eWIvqRp22IpQnoqYMs7e-102" value="+ find_tool" style="text;strokeColor=none;fillColor=none;align=left;verticalAlign=top;spacingLeft=4;spacingRight=4;overflow=hidden;rotatable=0;points=[[0,0.5],[1,0.5]];portConstraint=eastwest;spacing=14;spacingTop=-13;spacingBottom=-5;fontSize=15;" parent="eWIvqRp22IpQnoqYMs7e-65" vertex="1"><mxGeometry y="60" width="160" height="26" as="geometry"/></mxCell><mxCell id="eWIvqRp22IpQnoqYMs7e-101" value="+ compare" style="text;strokeColor=none;fillColor=none;align=left;verticalAlign=top;spacingLeft=4;spacingRight=4;overflow=hidden;rotatable=0;points=[[0,0.5],[1,0.5]];portConstraint=eastwest;spacing=14;spacingTop=-13;spacingBottom=-5;fontSize=15;" parent="eWIvqRp22IpQnoqYMs7e-65" vertex="1"><mxGeometry y="86" width="160" height="26" as="geometry"/></mxCell><mxCell id="eWIvqRp22IpQnoqYMs7e-104" style="edgeStyle=orthogonalEdgeStyle;rounded=0;orthogonalLoop=1;jettySize=auto;html=1;fontSize=15;endArrow=block;endFill=1;entryX=0;entryY=0.5;entryDx=0;entryDy=0;spacing=14;spacingTop=-13;spacingBottom=-5;" parent="WIyWlLk6GJQsqaUBKTNV-1" target="eWIvqRp22IpQnoqYMs7e-79" edge="1"><mxGeometry relative="1" as="geometry"><mxPoint x="1049.91" y="1596.91" as="sourcePoint"/><mxPoint x="669.91" y="1112.91" as="targetPoint"/><Array as="points"><mxPoint x="1079.91" y="1596.91"/><mxPoint x="1079.91" y="1488.91"/></Array></mxGeometry></mxCell><mxCell id="mBGq9KDk-pdnz_vkNycg-0" value="AbstactTask" style="swimlane;fontStyle=1;align=center;verticalAlign=top;childLayout=stackLayout;horizontal=1;startSize=26;horizontalStack=0;resizeParent=1;resizeParentMax=0;resizeLast=0;collapsible=1;marginBottom=0;spacing=14;spacingTop=-13;spacingBottom=-5;fontSize=15;labelBorderColor=#C42121;" parent="WIyWlLk6GJQsqaUBKTNV-1" vertex="1"><mxGeometry x="299.91" y="860" width="160" height="86" as="geometry"/></mxCell><mxCell id="mBGq9KDk-pdnz_vkNycg-1" value="+ field: type" style="text;strokeColor=none;fillColor=none;align=left;verticalAlign=top;spacingLeft=4;spacingRight=4;overflow=hidden;rotatable=0;points=[[0,0.5],[1,0.5]];portConstraint=eastwest;spacing=14;spacingTop=-13;spacingBottom=-5;fontSize=15;" parent="mBGq9KDk-pdnz_vkNycg-0" vertex="1"><mxGeometry y="26" width="160" height="26" as="geometry"/></mxCell><mxCell id="mBGq9KDk-pdnz_vkNycg-2" value="" style="line;strokeWidth=1;fillColor=none;align=left;verticalAlign=middle;spacingTop=-13;spacingLeft=3;spacingRight=3;rotatable=0;labelPosition=right;points=[];portConstraint=eastwest;spacing=14;spacingBottom=-5;fontSize=15;" parent="mBGq9KDk-pdnz_vkNycg-0" vertex="1"><mxGeometry y="52" width="160" height="8" as="geometry"/></mxCell><mxCell id="mBGq9KDk-pdnz_vkNycg-3" value="+ method(type): type" style="text;strokeColor=none;fillColor=none;align=left;verticalAlign=top;spacingLeft=4;spacingRight=4;overflow=hidden;rotatable=0;points=[[0,0.5],[1,0.5]];portConstraint=eastwest;spacing=14;spacingTop=-13;spacingBottom=-5;fontSize=15;" parent="mBGq9KDk-pdnz_vkNycg-0" vertex="1"><mxGeometry y="60" width="160" height="26" as="geometry"/></mxCell><mxCell id="mBGq9KDk-pdnz_vkNycg-4" value="Task" style="swimlane;fontStyle=1;align=center;verticalAlign=top;childLayout=stackLayout;horizontal=1;startSize=26;horizontalStack=0;resizeParent=1;resizeParentMax=0;resizeLast=0;collapsible=1;marginBottom=0;spacing=14;spacingTop=-13;spacingBottom=-5;fontSize=15;" parent="WIyWlLk6GJQsqaUBKTNV-1" vertex="1"><mxGeometry x="299.90999999999997" y="745.91" width="160" height="86" as="geometry"/></mxCell><mxCell id="mBGq9KDk-pdnz_vkNycg-5" value="+ field: type" style="text;strokeColor=none;fillColor=none;align=left;verticalAlign=top;spacingLeft=4;spacingRight=4;overflow=hidden;rotatable=0;points=[[0,0.5],[1,0.5]];portConstraint=eastwest;spacing=14;spacingTop=-13;spacingBottom=-5;fontSize=15;" parent="mBGq9KDk-pdnz_vkNycg-4" vertex="1"><mxGeometry y="26" width="160" height="26" as="geometry"/></mxCell><mxCell id="mBGq9KDk-pdnz_vkNycg-6" value="" style="line;strokeWidth=1;fillColor=none;align=left;verticalAlign=middle;spacingTop=-13;spacingLeft=3;spacingRight=3;rotatable=0;labelPosition=right;points=[];portConstraint=eastwest;spacing=14;spacingBottom=-5;fontSize=15;" parent="mBGq9KDk-pdnz_vkNycg-4" vertex="1"><mxGeometry y="52" width="160" height="8" as="geometry"/></mxCell><mxCell id="mBGq9KDk-pdnz_vkNycg-7" value="+ method(type): type" style="text;strokeColor=none;fillColor=none;align=left;verticalAlign=top;spacingLeft=4;spacingRight=4;overflow=hidden;rotatable=0;points=[[0,0.5],[1,0.5]];portConstraint=eastwest;spacing=14;spacingTop=-13;spacingBottom=-5;fontSize=15;" parent="mBGq9KDk-pdnz_vkNycg-4" vertex="1"><mxGeometry y="60" width="160" height="26" as="geometry"/></mxCell><mxCell id="mBGq9KDk-pdnz_vkNycg-8" value="" style="shape=cylinder3;whiteSpace=wrap;html=1;boundedLbl=1;backgroundOutline=1;size=15;spacing=14;spacingTop=-13;spacingBottom=-5;fontSize=15;" parent="WIyWlLk6GJQsqaUBKTNV-1" vertex="1"><mxGeometry x="649.91" y="805.91" width="70" height="87" as="geometry"/></mxCell><mxCell id="mBGq9KDk-pdnz_vkNycg-10" style="edgeStyle=orthogonalEdgeStyle;rounded=0;orthogonalLoop=1;jettySize=auto;html=1;exitX=0;exitY=0.5;exitDx=0;exitDy=0;entryX=0;entryY=0.5;entryDx=0;entryDy=0;endArrow=block;endFill=1;spacing=14;spacingTop=-13;spacingBottom=-5;fontSize=15;" parent="WIyWlLk6GJQsqaUBKTNV-1" source="mBGq9KDk-pdnz_vkNycg-7" target="mBGq9KDk-pdnz_vkNycg-3" edge="1"><mxGeometry relative="1" as="geometry"/></mxCell><mxCell id="mBGq9KDk-pdnz_vkNycg-14" style="edgeStyle=orthogonalEdgeStyle;rounded=0;orthogonalLoop=1;jettySize=auto;html=1;endArrow=none;endFill=0;entryX=0;entryY=0.25;entryDx=0;entryDy=0;exitX=1;exitY=0.5;exitDx=0;exitDy=0;startArrow=openThin;startFill=0;spacing=14;spacingTop=-13;spacingBottom=-5;fontSize=15;" parent="WIyWlLk6GJQsqaUBKTNV-1" source="mBGq9KDk-pdnz_vkNycg-7" target="nFAthjIKCvnRlDfPgbJd-1" edge="1"><mxGeometry relative="1" as="geometry"><mxPoint x="509.90999999999997" y="815.91" as="sourcePoint"/><Array as="points"><mxPoint x="529.91" y="818.91"/><mxPoint x="529.91" y="957.91"/></Array></mxGeometry></mxCell><mxCell id="nFAthjIKCvnRlDfPgbJd-1" value="Database" style="swimlane;fontStyle=1;align=center;verticalAlign=top;childLayout=stackLayout;horizontal=1;startSize=26;horizontalStack=0;resizeParent=1;resizeParentMax=0;resizeLast=0;collapsible=1;marginBottom=0;spacing=14;spacingTop=-13;spacingBottom=-5;fontSize=15;labelBorderColor=#168AC4;" parent="WIyWlLk6GJQsqaUBKTNV-1" vertex="1"><mxGeometry x="569.91" y="935.91" width="160" height="86" as="geometry"/></mxCell><mxCell id="nFAthjIKCvnRlDfPgbJd-2" value="+ field: type" style="text;strokeColor=none;fillColor=none;align=left;verticalAlign=top;spacingLeft=4;spacingRight=4;overflow=hidden;rotatable=0;points=[[0,0.5],[1,0.5]];portConstraint=eastwest;spacing=14;spacingTop=-13;spacingBottom=-5;fontSize=15;" parent="nFAthjIKCvnRlDfPgbJd-1" vertex="1"><mxGeometry y="26" width="160" height="26" as="geometry"/></mxCell><mxCell id="nFAthjIKCvnRlDfPgbJd-3" value="" style="line;strokeWidth=1;fillColor=none;align=left;verticalAlign=middle;spacingTop=-13;spacingLeft=3;spacingRight=3;rotatable=0;labelPosition=right;points=[];portConstraint=eastwest;spacing=14;spacingBottom=-5;fontSize=15;" parent="nFAthjIKCvnRlDfPgbJd-1" vertex="1"><mxGeometry y="52" width="160" height="8" as="geometry"/></mxCell><mxCell id="nFAthjIKCvnRlDfPgbJd-4" value="+ method(type): type" style="text;strokeColor=none;fillColor=none;align=left;verticalAlign=top;spacingLeft=4;spacingRight=4;overflow=hidden;rotatable=0;points=[[0,0.5],[1,0.5]];portConstraint=eastwest;spacing=14;spacingTop=-13;spacingBottom=-5;fontSize=15;" parent="nFAthjIKCvnRlDfPgbJd-1" vertex="1"><mxGeometry y="60" width="160" height="26" as="geometry"/></mxCell><mxCell id="nFAthjIKCvnRlDfPgbJd-5" style="edgeStyle=orthogonalEdgeStyle;rounded=0;orthogonalLoop=1;jettySize=auto;html=1;exitX=1;exitY=0.5;exitDx=0;exitDy=0;entryX=1;entryY=1;entryDx=0;entryDy=-15;entryPerimeter=0;endArrow=none;endFill=0;startArrow=openThin;startFill=0;spacing=14;spacingTop=-13;spacingBottom=-5;fontSize=15;" parent="WIyWlLk6GJQsqaUBKTNV-1" source="nFAthjIKCvnRlDfPgbJd-2" target="mBGq9KDk-pdnz_vkNycg-8" edge="1"><mxGeometry relative="1" as="geometry"/></mxCell><mxCell id="nFAthjIKCvnRlDfPgbJd-10" value="LinkedListItem" style="swimlane;fontStyle=1;align=center;verticalAlign=top;childLayout=stackLayout;horizontal=1;startSize=26;horizontalStack=0;resizeParent=1;resizeParentMax=0;resizeLast=0;collapsible=1;marginBottom=0;spacing=14;spacingTop=-13;spacingBottom=-5;fontSize=15;" parent="WIyWlLk6GJQsqaUBKTNV-1" vertex="1"><mxGeometry x="659.91" y="99.91" width="170" height="216" as="geometry"/></mxCell><mxCell id="nFAthjIKCvnRlDfPgbJd-11" value="# next: Optional[self]" style="text;strokeColor=none;fillColor=none;align=left;verticalAlign=top;spacingLeft=4;spacingRight=4;overflow=hidden;rotatable=0;points=[[0,0.5],[1,0.5]];portConstraint=eastwest;spacing=14;spacingTop=-13;spacingBottom=-5;fontSize=15;" parent="nFAthjIKCvnRlDfPgbJd-10" vertex="1"><mxGeometry y="26" width="170" height="26" as="geometry"/></mxCell><mxCell id="nFAthjIKCvnRlDfPgbJd-242" value="+ value: Any" style="text;strokeColor=none;fillColor=none;align=left;verticalAlign=top;spacingLeft=4;spacingRight=4;overflow=hidden;rotatable=0;points=[[0,0.5],[1,0.5]];portConstraint=eastwest;spacing=14;spacingTop=-13;spacingBottom=-5;fontSize=15;" parent="nFAthjIKCvnRlDfPgbJd-10" vertex="1"><mxGeometry y="52" width="170" height="26" as="geometry"/></mxCell><mxCell id="nFAthjIKCvnRlDfPgbJd-241" value="@ next: Optional[self]" style="text;strokeColor=none;fillColor=none;align=left;verticalAlign=top;spacingLeft=4;spacingRight=4;overflow=hidden;rotatable=0;points=[[0,0.5],[1,0.5]];portConstraint=eastwest;spacing=14;spacingTop=-13;spacingBottom=-5;fontSize=15;" parent="nFAthjIKCvnRlDfPgbJd-10" vertex="1"><mxGeometry y="78" width="170" height="26" as="geometry"/></mxCell><mxCell id="nFAthjIKCvnRlDfPgbJd-12" value="" style="line;strokeWidth=1;fillColor=none;align=left;verticalAlign=middle;spacingTop=-13;spacingLeft=3;spacingRight=3;rotatable=0;labelPosition=right;points=[];portConstraint=eastwest;spacing=14;spacingBottom=-5;fontSize=15;" parent="nFAthjIKCvnRlDfPgbJd-10" vertex="1"><mxGeometry y="104" width="170" height="8" as="geometry"/></mxCell><mxCell id="nFAthjIKCvnRlDfPgbJd-13" value="+ method(type): type" style="text;strokeColor=none;fillColor=none;align=left;verticalAlign=top;spacingLeft=4;spacingRight=4;overflow=hidden;rotatable=0;points=[[0,0.5],[1,0.5]];portConstraint=eastwest;spacing=14;spacingTop=-13;spacingBottom=-5;fontSize=15;" parent="nFAthjIKCvnRlDfPgbJd-10" vertex="1"><mxGeometry y="112" width="170" height="26" as="geometry"/></mxCell><mxCell id="nFAthjIKCvnRlDfPgbJd-240" value="@ next: Optional[self]" style="text;strokeColor=none;fillColor=none;align=left;verticalAlign=top;spacingLeft=4;spacingRight=4;overflow=hidden;rotatable=0;points=[[0,0.5],[1,0.5]];portConstraint=eastwest;spacing=14;spacingTop=-13;spacingBottom=-5;fontSize=15;" parent="nFAthjIKCvnRlDfPgbJd-10" vertex="1"><mxGeometry y="138" width="170" height="26" as="geometry"/></mxCell><mxCell id="nFAthjIKCvnRlDfPgbJd-239" value="__str__: str" style="text;strokeColor=none;fillColor=none;align=left;verticalAlign=top;spacingLeft=4;spacingRight=4;overflow=hidden;rotatable=0;points=[[0,0.5],[1,0.5]];portConstraint=eastwest;spacing=14;spacingTop=-13;spacingBottom=-5;fontSize=15;" parent="nFAthjIKCvnRlDfPgbJd-10" vertex="1"><mxGeometry y="164" width="170" height="26" as="geometry"/></mxCell><mxCell id="nFAthjIKCvnRlDfPgbJd-238" value="__repr__: str" style="text;strokeColor=none;fillColor=none;align=left;verticalAlign=top;spacingLeft=4;spacingRight=4;overflow=hidden;rotatable=0;points=[[0,0.5],[1,0.5]];portConstraint=eastwest;spacing=14;spacingTop=-13;spacingBottom=-5;fontSize=15;" parent="nFAthjIKCvnRlDfPgbJd-10" vertex="1"><mxGeometry y="190" width="170" height="26" as="geometry"/></mxCell><mxCell id="nFAthjIKCvnRlDfPgbJd-244" style="edgeStyle=orthogonalEdgeStyle;rounded=0;orthogonalLoop=1;jettySize=auto;html=1;endArrow=diamondThin;endFill=1;startSize=6;endSize=14;exitX=1;exitY=0.5;exitDx=0;exitDy=0;entryX=0;entryY=0.5;entryDx=0;entryDy=0;spacing=14;spacingTop=-13;spacingBottom=-5;fontSize=15;" parent="WIyWlLk6GJQsqaUBKTNV-1" source="nFAthjIKCvnRlDfPgbJd-240" target="nFAthjIKCvnRlDfPgbJd-23" edge="1"><mxGeometry relative="1" as="geometry"><mxPoint x="839.91" y="429.91" as="sourcePoint"/><Array as="points"><mxPoint x="879.91" y="249.91"/><mxPoint x="879.91" y="268.91"/></Array><mxPoint x="919.91" y="439.91" as="targetPoint"/></mxGeometry></mxCell><mxCell id="nFAthjIKCvnRlDfPgbJd-246" style="edgeStyle=orthogonalEdgeStyle;rounded=0;orthogonalLoop=1;jettySize=auto;html=1;exitX=0;exitY=0.5;exitDx=0;exitDy=0;entryX=0;entryY=0.5;entryDx=0;entryDy=0;endArrow=openThin;endFill=0;startSize=6;endSize=6;spacing=14;spacingTop=-13;spacingBottom=-5;fontSize=15;" parent="WIyWlLk6GJQsqaUBKTNV-1" source="eWIvqRp22IpQnoqYMs7e-12" target="eWIvqRp22IpQnoqYMs7e-14" edge="1"><mxGeometry relative="1" as="geometry"/></mxCell><mxCell id="nFAthjIKCvnRlDfPgbJd-248" style="edgeStyle=orthogonalEdgeStyle;rounded=0;orthogonalLoop=1;jettySize=auto;html=1;entryX=1;entryY=0.5;entryDx=0;entryDy=0;endArrow=openThin;endFill=0;startSize=6;endSize=6;dashed=1;exitX=1;exitY=0.5;exitDx=0;exitDy=0;spacing=14;spacingTop=-14;spacingBottom=-5;fontSize=15;" parent="WIyWlLk6GJQsqaUBKTNV-1" source="nFAthjIKCvnRlDfPgbJd-242" target="eWIvqRp22IpQnoqYMs7e-83" edge="1"><mxGeometry relative="1" as="geometry"><mxPoint x="839.91" y="169.91" as="sourcePoint"/><Array as="points"><mxPoint x="869.91" y="164.91"/><mxPoint x="869.91" y="49.91"/><mxPoint x="1409.91" y="49.91"/><mxPoint x="1409.91" y="1384.91"/></Array></mxGeometry></mxCell><mxCell id="nFAthjIKCvnRlDfPgbJd-249" style="edgeStyle=orthogonalEdgeStyle;rounded=0;orthogonalLoop=1;jettySize=auto;html=1;exitX=1;exitY=0.5;exitDx=0;exitDy=0;entryX=1;entryY=0.5;entryDx=0;entryDy=0;endArrow=none;endFill=0;startSize=6;endSize=6;startArrow=openThin;startFill=0;spacing=14;spacingTop=-13;spacingBottom=-5;fontSize=15;" parent="WIyWlLk6GJQsqaUBKTNV-1" source="nFAthjIKCvnRlDfPgbJd-4" target="eWIvqRp22IpQnoqYMs7e-7" edge="1"><mxGeometry relative="1" as="geometry"/></mxCell><mxCell id="nFAthjIKCvnRlDfPgbJd-256" style="edgeStyle=orthogonalEdgeStyle;rounded=0;orthogonalLoop=1;jettySize=auto;html=1;exitX=1;exitY=0.5;exitDx=0;exitDy=0;entryX=0;entryY=0.5;entryDx=0;entryDy=0;fontSize=15;startArrow=openThin;startFill=0;endArrow=none;endFill=0;startSize=6;endSize=6;dashed=1;" parent="WIyWlLk6GJQsqaUBKTNV-1" source="mBGq9KDk-pdnz_vkNycg-5" target="nFAthjIKCvnRlDfPgbJd-238" edge="1"><mxGeometry relative="1" as="geometry"><Array as="points"><mxPoint x="630" y="785"/><mxPoint x="630" y="303"/></Array></mxGeometry></mxCell><mxCell id="nFAthjIKCvnRlDfPgbJd-257" value="TaskCollection" style="swimlane;fontStyle=1;align=center;verticalAlign=top;childLayout=stackLayout;horizontal=1;startSize=26;horizontalStack=0;resizeParent=1;resizeParentMax=0;resizeLast=0;collapsible=1;marginBottom=0;fontSize=15;labelBorderColor=#F0A30A;" parent="WIyWlLk6GJQsqaUBKTNV-1" vertex="1"><mxGeometry x="320" y="590" width="160" height="86" as="geometry"/></mxCell><mxCell id="nFAthjIKCvnRlDfPgbJd-258" value="+ field: type" style="text;strokeColor=none;fillColor=none;align=left;verticalAlign=top;spacingLeft=4;spacingRight=4;overflow=hidden;rotatable=0;points=[[0,0.5],[1,0.5]];portConstraint=eastwest;fontSize=15;" parent="nFAthjIKCvnRlDfPgbJd-257" vertex="1"><mxGeometry y="26" width="160" height="26" as="geometry"/></mxCell><mxCell id="nFAthjIKCvnRlDfPgbJd-259" value="" style="line;strokeWidth=1;fillColor=none;align=left;verticalAlign=middle;spacingTop=-1;spacingLeft=3;spacingRight=3;rotatable=0;labelPosition=right;points=[];portConstraint=eastwest;fontSize=15;" parent="nFAthjIKCvnRlDfPgbJd-257" vertex="1"><mxGeometry y="52" width="160" height="8" as="geometry"/></mxCell><mxCell id="nFAthjIKCvnRlDfPgbJd-260" value="+ method(type): type" style="text;strokeColor=none;fillColor=none;align=left;verticalAlign=top;spacingLeft=4;spacingRight=4;overflow=hidden;rotatable=0;points=[[0,0.5],[1,0.5]];portConstraint=eastwest;fontSize=15;" parent="nFAthjIKCvnRlDfPgbJd-257" vertex="1"><mxGeometry y="60" width="160" height="26" as="geometry"/></mxCell><mxCell id="nFAthjIKCvnRlDfPgbJd-261" style="edgeStyle=orthogonalEdgeStyle;rounded=0;orthogonalLoop=1;jettySize=auto;html=1;exitX=1;exitY=0;exitDx=0;exitDy=0;entryX=1;entryY=0.5;entryDx=0;entryDy=0;dashed=1;fontSize=15;startArrow=none;startFill=0;endArrow=diamondThin;endFill=1;startSize=6;endSize=14;strokeWidth=1;" parent="WIyWlLk6GJQsqaUBKTNV-1" source="mBGq9KDk-pdnz_vkNycg-4" target="nFAthjIKCvnRlDfPgbJd-260" edge="1"><mxGeometry relative="1" as="geometry"><Array as="points"><mxPoint x="460" y="720"/><mxPoint x="520" y="720"/><mxPoint x="520" y="663"/></Array></mxGeometry></mxCell><mxCell id="nFAthjIKCvnRlDfPgbJd-262" value="Backend" style="swimlane;fontStyle=1;align=center;verticalAlign=top;childLayout=stackLayout;horizontal=1;startSize=26;horizontalStack=0;resizeParent=1;resizeParentMax=0;resizeLast=0;collapsible=1;marginBottom=0;fontSize=15;labelBackgroundColor=none;labelBorderColor=#00C427;" parent="WIyWlLk6GJQsqaUBKTNV-1" vertex="1"><mxGeometry x="290" y="400" width="160" height="86" as="geometry"/></mxCell><mxCell id="nFAthjIKCvnRlDfPgbJd-263" value="+ field: type" style="text;strokeColor=none;fillColor=none;align=left;verticalAlign=top;spacingLeft=4;spacingRight=4;overflow=hidden;rotatable=0;points=[[0,0.5],[1,0.5]];portConstraint=eastwest;fontSize=15;" parent="nFAthjIKCvnRlDfPgbJd-262" vertex="1"><mxGeometry y="26" width="160" height="26" as="geometry"/></mxCell><mxCell id="nFAthjIKCvnRlDfPgbJd-264" value="" style="line;strokeWidth=1;fillColor=none;align=left;verticalAlign=middle;spacingTop=-1;spacingLeft=3;spacingRight=3;rotatable=0;labelPosition=right;points=[];portConstraint=eastwest;fontSize=15;" parent="nFAthjIKCvnRlDfPgbJd-262" vertex="1"><mxGeometry y="52" width="160" height="8" as="geometry"/></mxCell><mxCell id="nFAthjIKCvnRlDfPgbJd-265" value="+ method(type): type" style="text;strokeColor=none;fillColor=none;align=left;verticalAlign=top;spacingLeft=4;spacingRight=4;overflow=hidden;rotatable=0;points=[[0,0.5],[1,0.5]];portConstraint=eastwest;fontSize=15;" parent="nFAthjIKCvnRlDfPgbJd-262" vertex="1"><mxGeometry y="60" width="160" height="26" as="geometry"/></mxCell><mxCell id="nFAthjIKCvnRlDfPgbJd-267" style="edgeStyle=orthogonalEdgeStyle;rounded=0;orthogonalLoop=1;jettySize=auto;html=1;exitX=1;exitY=0.5;exitDx=0;exitDy=0;entryX=1;entryY=0.5;entryDx=0;entryDy=0;fontSize=15;startArrow=none;startFill=0;endArrow=none;endFill=0;startSize=6;endSize=14;strokeWidth=1;" parent="WIyWlLk6GJQsqaUBKTNV-1" source="nFAthjIKCvnRlDfPgbJd-258" target="nFAthjIKCvnRlDfPgbJd-265" edge="1"><mxGeometry relative="1" as="geometry"/></mxCell><mxCell id="nFAthjIKCvnRlDfPgbJd-270" value="_" style="text;html=1;align=center;verticalAlign=middle;resizable=0;points=[];autosize=1;strokeColor=none;fillColor=none;fontSize=21;fontColor=#00C427;fontStyle=1" parent="WIyWlLk6GJQsqaUBKTNV-1" vertex="1"><mxGeometry x="130" y="30" width="30" height="30" as="geometry"/></mxCell><mxCell id="nFAthjIKCvnRlDfPgbJd-271" value="&lt;font style=&quot;font-size: 14px;&quot;&gt;Фабличный метод&lt;/font&gt;" style="text;html=1;align=center;verticalAlign=middle;resizable=0;points=[];autosize=1;strokeColor=none;fillColor=none;fontSize=22;fontColor=#FFFFFF;" parent="WIyWlLk6GJQsqaUBKTNV-1" vertex="1"><mxGeometry x="150" y="40" width="130" height="30" as="geometry"/></mxCell><mxCell id="nFAthjIKCvnRlDfPgbJd-272" style="edgeStyle=orthogonalEdgeStyle;rounded=0;orthogonalLoop=1;jettySize=auto;html=1;exitX=0;exitY=0.5;exitDx=0;exitDy=0;entryX=0.5;entryY=1;entryDx=0;entryDy=0;fontSize=14;fontColor=#FFFFFF;startArrow=none;startFill=0;endArrow=openThin;endFill=0;startSize=6;endSize=14;strokeWidth=1;" parent="WIyWlLk6GJQsqaUBKTNV-1" source="nFAthjIKCvnRlDfPgbJd-263" target="eWIvqRp22IpQnoqYMs7e-8" edge="1"><mxGeometry relative="1" as="geometry"/></mxCell><mxCell id="nFAthjIKCvnRlDfPgbJd-274" value="&lt;font color=&quot;#168ac4&quot;&gt;_&lt;/font&gt;" style="text;html=1;align=center;verticalAlign=middle;resizable=0;points=[];autosize=1;fontSize=21;fontStyle=1" parent="WIyWlLk6GJQsqaUBKTNV-1" vertex="1"><mxGeometry x="130" y="10.000000000000004" width="30" height="30" as="geometry"/></mxCell><mxCell id="nFAthjIKCvnRlDfPgbJd-275" value="&lt;font color=&quot;#ffffff&quot;&gt;Адаптер&lt;/font&gt;" style="text;html=1;align=center;verticalAlign=middle;resizable=0;points=[];autosize=1;strokeColor=none;fillColor=none;fontSize=14;fontColor=#168AC4;" parent="WIyWlLk6GJQsqaUBKTNV-1" vertex="1"><mxGeometry x="160.00000000000003" y="20" width="70" height="20" as="geometry"/></mxCell><mxCell id="nFAthjIKCvnRlDfPgbJd-278" value="&lt;font color=&quot;#c42121&quot;&gt;_&lt;/font&gt;" style="text;html=1;align=center;verticalAlign=middle;resizable=0;points=[];autosize=1;strokeColor=none;fillColor=none;fontSize=21;fontColor=#00C427;fontStyle=1" parent="WIyWlLk6GJQsqaUBKTNV-1" vertex="1"><mxGeometry x="320" y="10" width="30" height="30" as="geometry"/></mxCell><mxCell id="nFAthjIKCvnRlDfPgbJd-279" value="&lt;font color=&quot;#ffffff&quot;&gt;Абстракция&lt;/font&gt;" style="text;html=1;align=center;verticalAlign=middle;resizable=0;points=[];autosize=1;strokeColor=none;fillColor=none;fontSize=14;fontColor=#C42121;" parent="WIyWlLk6GJQsqaUBKTNV-1" vertex="1"><mxGeometry x="350" y="20" width="90" height="20" as="geometry"/></mxCell><mxCell id="nFAthjIKCvnRlDfPgbJd-280" value="&lt;font color=&quot;#f0a30a&quot;&gt;_&lt;/font&gt;" style="text;html=1;align=center;verticalAlign=middle;resizable=0;points=[];autosize=1;fontSize=21;fontStyle=1;fillColor=none;fontColor=#000000;strokeColor=none;" parent="WIyWlLk6GJQsqaUBKTNV-1" vertex="1"><mxGeometry x="320" y="30" width="30" height="30" as="geometry"/></mxCell><mxCell id="nFAthjIKCvnRlDfPgbJd-281" value="&lt;font color=&quot;#ffffff&quot;&gt;Коллекция&lt;/font&gt;" style="text;html=1;align=center;verticalAlign=middle;resizable=0;points=[];autosize=1;strokeColor=none;fillColor=none;fontSize=14;fontColor=#F0A30A;" parent="WIyWlLk6GJQsqaUBKTNV-1" vertex="1"><mxGeometry x="350" y="45" width="80" height="20" as="geometry"/></mxCell></root></mxGraphModel></diagram></mxfile>